<svg xmlns="http://www.w3.org/2000/svg" viewBox="0 0 260 64" role="img" aria-label="Ridewallah">
  <path d="M28 4C16.4 4 7 13.2 7 24.6 7 39.4 28 52.6 28 52.6s21-13.2 21-28C49 13.2 39.6 4 28 4z" fill="#fff"/>
  <path d="M21.4 37V15h8.2c4.8 0 7.7 2.5 7.7 6.6 0 3-1.7 5.1-4.4 6L38 37h-5.2l-4.6-8.8h-2.2V37z M26 24.4h3.5c2 0 3.2-1 3.2-2.8s-1.2-2.8-3.2-2.8H26z" fill="#0b5cff"/>
  <text x="60" y="38" font-family="Poppins, -apple-system, Segoe UI, Arial, sans-serif" font-size="30" font-weight="800" letter-spacing="-0.3" fill="#fff">Ride<tspan fill="#9fd3ff">wallah</tspan></text>
  <text x="61" y="55" font-family="Poppins, -apple-system, Segoe UI, Arial, sans-serif" font-size="8.5" font-weight="600" letter-spacing="2.4" fill="#fff" fill-opacity="0.65">RIDE · REACH · RELAX</text>
</svg>
